<svg width="31" height="50" viewBox="0 0 31 50" fill="none" xmlns="http://www.w3.org/2000/svg">
<g id="Group 372">
<path id="Vector 52" d="M13.1836 7.93555L14.8791 23.8578C15.0754 25.7012 15.0998 27.5589 14.952 29.4068C14.5381 34.5838 12.7829 39.5637 9.85914 43.856L7.73439 46.9754L11.1164 46.9754L14.0219 43.1945C16.3894 40.1137 17.9988 36.519 18.7199 32.7011C19.5711 28.1943 19.1539 23.5396 17.515 19.256L13.1836 7.93555Z" fill="#39D546"/>
<path id="Vector 55" d="M1.91016 10.2686L6.24308 16.5513C8.35064 19.6073 9.94312 22.988 10.9572 26.559C12.5404 32.1343 12.671 38.0219 11.3367 43.6619L10.5531 46.9737H12.8078L13.9351 43.212C15.5276 37.8979 15.5063 32.2307 13.874 26.9288C12.5561 22.6485 10.2312 18.7466 7.09409 15.5503L1.91016 10.2686Z" fill="#12DF7E"/>
<path id="Vector 56" d="M15.0664 47.096L15.4002 43.9102C16.9352 29.2621 21.5604 15.1064 28.9703 2.37793V2.37793" stroke="#12B869" stroke-width="2"/>
<path id="Vector 53" d="M30.8477 16.8457L23.3067 24.705C21.1527 26.95 19.6297 29.7239 18.8918 32.7463C18.2836 35.2374 18.225 37.831 18.72 40.3469L19.95 46.5989H17.9686L16.5582 38.603C16.3151 37.2248 16.2433 35.8218 16.3445 34.4259C16.7226 29.2075 19.4852 24.4548 23.8325 21.5436L30.8477 16.8457Z" fill="#18A160"/>
<g id="Group 333">
<g id="Group 318">
<path id="Rectangle 199" d="M17.2059 20.3317C16.8856 19.4517 16.9001 18.4817 17.2442 17.6108L17.3099 17.6423C18.1503 18.0445 18.7995 18.7602 19.1182 19.6357C19.4368 20.5112 19.3995 21.4767 19.0143 22.3251L18.9842 22.3914C18.1608 21.9454 17.5262 21.2117 17.2059 20.3317Z" fill="#EBC44C"/>
<path id="Rectangle 200" d="M17.3164 20.2144C17.1553 19.7718 17.1084 19.2958 17.18 18.8303L17.2237 18.5466L17.4673 18.7423C17.8334 19.0363 18.1119 19.4251 18.2725 19.8664C18.4331 20.3076 18.4697 20.7845 18.3782 21.2451L18.3174 21.5515L18.1016 21.3623C17.7475 21.0517 17.4775 20.6569 17.3164 20.2144Z" fill="#FCDD7F"/>
</g>
<g id="Group 320">
<path id="Rectangle 199_2" d="M18.3036 17.6217C17.9833 16.7418 17.9977 15.7718 18.3419 14.9008L18.4076 14.9323C19.248 15.3346 19.8972 16.0502 20.2158 16.9257C20.5345 17.8012 20.4972 18.7668 20.112 19.6151L20.0819 19.6814C19.2584 19.2355 18.6239 18.5017 18.3036 17.6217Z" fill="#EBC44C"/>
<path id="Rectangle 200_2" d="M18.414 17.5044C18.253 17.0618 18.2061 16.5858 18.2777 16.1203L18.3213 15.8367L18.5649 16.0323C18.931 16.3264 19.2095 16.7152 19.3702 17.1564C19.5308 17.5977 19.5673 18.0745 19.4759 18.5351L19.415 18.8416L19.1993 18.6523C18.8452 18.3418 18.5751 17.947 18.414 17.5044Z" fill="#FCDD7F"/>
</g>
<g id="Group 322">
<path id="Rectangle 199_3" d="M19.1747 14.1334C18.8544 13.2535 18.8688 12.2835 19.213 11.4126L19.2787 11.444C20.1191 11.8463 20.7682 12.562 21.0869 13.4375C21.4056 14.3129 21.3683 15.2785 20.9831 16.1268L20.953 16.1931C20.1295 15.7472 19.495 15.0134 19.1747 14.1334Z" fill="#EBC44C"/>
<path id="Rectangle 200_3" d="M19.2851 14.0161C19.1241 13.5736 19.0772 13.0975 19.1488 12.632L19.1924 12.3484L19.436 12.544C19.8021 12.8381 20.0806 13.2269 20.2412 13.6681C20.4019 14.1094 20.4384 14.5862 20.347 15.0468L20.2861 15.3533L20.0704 15.1641C19.7163 14.8535 19.4462 14.4587 19.2851 14.0161Z" fill="#FCDD7F"/>
</g>
<g id="Group 324">
<path id="Rectangle 199_4" d="M21.12 11.1715C20.7997 10.2916 20.8142 9.32156 21.1583 8.45065L21.224 8.4821C22.0644 8.88436 22.7136 9.60004 23.0322 10.4755C23.3509 11.351 23.3136 12.3166 22.9284 13.1649L22.8983 13.2312C22.0748 12.7853 21.4403 12.0515 21.12 11.1715Z" fill="#EBC44C"/>
<path id="Rectangle 200_4" d="M21.2304 11.0532C21.0694 10.6107 21.0225 10.1346 21.0941 9.66915L21.1377 9.38548L21.3813 9.58114C21.7475 9.87519 22.026 10.264 22.1866 10.7052C22.3472 11.1465 22.3837 11.6234 22.2923 12.0839L22.2314 12.3904L22.0157 12.2012C21.6616 11.8906 21.3915 11.4958 21.2304 11.0532Z" fill="#FCDD7F"/>
</g>
<g id="Group 326">
<path id="Rectangle 199_5" d="M22.6669 8.02895C22.3466 7.14898 22.361 6.17898 22.7052 5.30808L22.7709 5.33952C23.6112 5.74178 24.2604 6.45746 24.5791 7.33296C24.8977 8.20846 24.8605 9.17399 24.4753 10.0223L24.4452 10.0886C23.6217 9.6427 22.9871 8.90892 22.6669 8.02895Z" fill="#EBC44C"/>
<path id="Rectangle 200_5" d="M22.7773 7.91164C22.6162 7.46908 22.5693 6.99304 22.641 6.52755L22.6846 6.24388L22.9282 6.43954C23.2943 6.73359 23.5728 7.12238 23.7334 7.56364C23.894 8.00491 23.9306 8.48175 23.8392 8.94234L23.7783 9.2488L23.5625 9.05956C23.2085 8.74901 22.9384 8.35421 22.7773 7.91164Z" fill="#FCDD7F"/>
</g>
<g id="Group 328">
<path id="Rectangle 199_6" d="M24.4956 6.00551C24.1248 5.36318 24.0026 4.60459 24.1513 3.87795L24.2069 3.89345C24.9177 4.09162 25.5225 4.56057 25.8914 5.19963C26.2604 5.8387 26.3641 6.59694 26.1803 7.31161L26.166 7.36748C25.4624 7.1329 24.8665 6.64783 24.4956 6.00551Z" fill="#EBC44C"/>
<path id="Rectangle 200_6" d="M24.5668 5.89847C24.3803 5.57542 24.2782 5.21056 24.2701 4.83763L24.2651 4.61036L24.482 4.72947C24.808 4.90848 25.0787 5.17344 25.2647 5.49553C25.4506 5.81763 25.5448 6.18454 25.5368 6.55637L25.5315 6.80378L25.3371 6.68585C25.0182 6.49232 24.7533 6.22151 24.5668 5.89847Z" fill="#FCDD7F"/>
</g>
<g id="Group 330">
<path id="Rectangle 199_7" d="M25.9006 3.74286C25.7718 3.01244 25.9165 2.25782 26.3047 1.62585L26.3516 1.65941C26.9518 2.08875 27.3597 2.73627 27.4879 3.46298C27.616 4.1897 27.4542 4.93769 27.037 5.54641L27.0044 5.59399C26.4235 5.13291 26.0294 4.47328 25.9006 3.74286Z" fill="#EBC44C"/>
<path id="Rectangle 200_7" d="M26.0051 3.6651C25.9403 3.29774 25.9692 2.91999 26.0891 2.56676L26.1621 2.3515L26.3252 2.53761C26.5703 2.81733 26.7341 3.15889 26.7987 3.52516C26.8633 3.89143 26.8262 4.2684 26.6915 4.61509L26.6019 4.84576L26.4597 4.66847C26.2262 4.37755 26.0698 4.03245 26.0051 3.6651Z" fill="#FCDD7F"/>
</g>
<g id="Group 332">
<path id="Rectangle 199_8" d="M28.3247 1.74476C28.6955 1.10244 29.2914 0.617366 29.995 0.382789L30.0094 0.438657C30.1932 1.15333 30.0895 1.91157 29.7205 2.55063C29.3515 3.1897 28.7467 3.65864 28.0359 3.85682L27.9804 3.87232C27.8317 3.14567 27.9538 2.38709 28.3247 1.74476Z" fill="#EBC44C"/>
<path id="Rectangle 200_8" d="M28.4528 1.75198C28.6393 1.42894 28.9042 1.15813 29.2231 0.964603L29.4174 0.846668L29.4228 1.09407C29.4307 1.46591 29.3366 1.83282 29.1507 2.15492C28.9647 2.47701 28.694 2.74197 28.368 2.92098L28.1511 3.04008L28.156 2.81282C28.1642 2.43989 28.2662 2.07503 28.4528 1.75198Z" fill="#FCDD7F"/>
</g>
<g id="Group 319">
<path id="Rectangle 199_9" d="M21.8561 21.51C22.5735 20.9081 23.046 20.0608 23.1834 19.1345L23.1108 19.1289C22.1818 19.0571 21.2618 19.3523 20.5481 19.9512C19.8344 20.5501 19.3839 21.4049 19.2933 22.3321L19.2862 22.4046C20.2223 22.4302 21.1388 22.112 21.8561 21.51Z" fill="#EBC44C"/>
<path id="Rectangle 200_9" d="M21.8182 21.352C22.1789 21.0492 22.4576 20.6604 22.6283 20.2215L22.7323 19.954L22.4235 20.0016C21.9594 20.0732 21.5239 20.2707 21.1641 20.5725C20.8044 20.8744 20.5343 21.2691 20.3832 21.7137L20.2827 22.0095L20.5642 21.9535C21.0261 21.8616 21.4574 21.6547 21.8182 21.352Z" fill="#FCDD7F"/>
</g>
<g id="Group 321">
<path id="Rectangle 199_10" d="M22.4342 18.5999C23.1516 17.998 23.6241 17.1507 23.7615 16.2244L23.6889 16.2188C22.76 16.1469 21.8399 16.4422 21.1262 17.041C20.4125 17.6399 19.962 18.4947 19.8714 19.422L19.8643 19.4945C20.8004 19.52 21.7169 19.2018 22.4342 18.5999Z" fill="#EBC44C"/>
<path id="Rectangle 200_10" d="M22.3963 18.4418C22.7571 18.1391 23.0357 17.7503 23.2064 17.3113L23.3104 17.0438L23.0016 17.0915C22.5376 17.1631 22.102 17.3605 21.7423 17.6624C21.3825 17.9642 21.1124 18.3589 20.9613 18.8035L20.8608 19.0993L21.1423 19.0433C21.6042 18.9514 22.0355 18.7445 22.3963 18.4418Z" fill="#FCDD7F"/>
</g>
<g id="Group 323">
<path id="Rectangle 199_11" d="M23.8874 15.4046C24.6047 14.8026 25.0772 13.9554 25.2146 13.0291L25.142 13.0235C24.2131 12.9516 23.293 13.2468 22.5793 13.8457C21.8656 14.4446 21.4151 15.2994 21.3246 16.2267L21.3175 16.2992C22.2536 16.3247 23.17 16.0065 23.8874 15.4046Z" fill="#EBC44C"/>
<path id="Rectangle 200_11" d="M23.8494 15.2475C24.2102 14.9447 24.4888 14.5559 24.6595 14.117L24.7636 13.8495L24.4548 13.8971C23.9907 13.9687 23.5551 14.1662 23.1954 14.468C22.8357 14.7699 22.5656 15.1646 22.4145 15.6092L22.3139 15.905L22.5954 15.849C23.0573 15.7571 23.4886 15.5502 23.8494 15.2475Z" fill="#FCDD7F"/>
</g>
<g id="Group 325">
<path id="Rectangle 199_12" d="M25.4613 12.6688C26.3412 12.3485 27.075 11.714 27.521 10.8905L27.4547 10.8604C26.6063 10.4752 25.6408 10.4379 24.7653 10.7566C23.8898 11.0753 23.1741 11.7244 22.7719 12.5648L22.7404 12.6305C23.6113 12.9747 24.5813 12.9891 25.4613 12.6688Z" fill="#EBC44C"/>
<path id="Rectangle 200_12" d="M25.478 12.5058C25.9206 12.3448 26.3154 12.0747 26.6259 11.7206L26.8152 11.5048L26.5087 11.444C26.0481 11.3525 25.5713 11.3891 25.13 11.5497C24.6887 11.7103 24.3 11.9888 24.0059 12.3549L23.8102 12.5985L24.0939 12.6422C24.5594 12.7138 25.0354 12.6669 25.478 12.5058Z" fill="#FCDD7F"/>
</g>
<g id="Group 327">
<path id="Rectangle 199_13" d="M27.2074 10.0516C28.0873 9.73135 28.8211 9.09678 29.2671 8.27333L29.2007 8.24322C28.3524 7.85802 27.3869 7.82075 26.5114 8.13941C25.6359 8.45806 24.9202 9.10725 24.5179 9.94762L24.4865 10.0133C25.3574 10.3575 26.3274 10.3719 27.2074 10.0516Z" fill="#EBC44C"/>
<path id="Rectangle 200_13" d="M27.2241 9.88865C27.6667 9.72757 28.0615 9.4575 28.372 9.10342L28.5613 8.88764L28.2548 8.8268C27.7942 8.73536 27.3174 8.77193 26.8761 8.93254C26.4348 9.09314 26.0461 9.37164 25.752 9.73775L25.5563 9.98135L25.84 10.025C26.3055 10.0966 26.7815 10.0497 27.2241 9.88865Z" fill="#FCDD7F"/>
</g>
<g id="Group 329">
<path id="Rectangle 199_14" d="M28.0157 7.46448C28.6297 7.24099 29.1418 6.79821 29.4529 6.22363L29.4066 6.20262C28.8147 5.93384 28.141 5.90783 27.5301 6.13018C26.9192 6.35253 26.4198 6.80551 26.1391 7.3919L26.1172 7.43774C26.7249 7.67788 27.4017 7.68796 28.0157 7.46448Z" fill="#EBC44C"/>
<path id="Rectangle 200_14" d="M28.0298 7.35228C28.3386 7.23988 28.614 7.05144 28.8307 6.80437L28.9628 6.65381L28.7489 6.61135C28.4276 6.54755 28.0948 6.57307 27.7869 6.68513C27.479 6.7972 27.2077 6.99153 27.0026 7.24699L26.866 7.41696L27.064 7.44742C27.3888 7.4974 27.7209 7.46468 28.0298 7.35228Z" fill="#FCDD7F"/>
</g>
<g id="Group 331">
<path id="Rectangle 199_15" d="M29.1798 5.14026C29.7938 4.91677 30.3058 4.47399 30.617 3.89941L30.5707 3.8784C29.9788 3.60962 29.305 3.58362 28.6941 3.80596C28.0832 4.02831 27.5839 4.48129 27.3032 5.06768L27.2812 5.11352C27.8889 5.35366 28.5658 5.36374 29.1798 5.14026Z" fill="#EBC44C"/>
<path id="Rectangle 200_15" d="M29.1938 5.02806C29.5026 4.91566 29.7781 4.72722 29.9948 4.48015L30.1268 4.32959L29.913 4.28714C29.5916 4.22333 29.2589 4.24885 28.951 4.36091C28.6431 4.47298 28.3718 4.66731 28.1666 4.92277L28.0301 5.09274L28.228 5.1232C28.5528 5.17318 28.885 5.14046 29.1938 5.02806Z" fill="#FCDD7F"/>
</g>
</g>
</g>
</svg>
