<svg width="50" height="50" viewBox="0 0 50 50" fill="none" xmlns="http://www.w3.org/2000/svg">
<circle cx="25" cy="25" r="25" fill="#D9D9D9"/>
<mask id="mask0_104_18030" style="mask-type:alpha" maskUnits="userSpaceOnUse" x="0" y="0" width="50" height="50">
<circle cx="25" cy="25" r="25" fill="#D9D9D9"/>
</mask>
<g mask="url(#mask0_104_18030)">
<path d="M6.83839 41.8197C5.89827 41.8197 6.1701 38.9895 6.31028 38.0761C6.60753 36.1486 7.2818 34.3708 8.47648 32.9527C10.1529 30.9616 12.9732 29.542 17.6464 29.542H18.5325V27.5545L18.3553 27.3274C17.9316 26.7845 17.2911 25.8809 16.7611 24.9569C16.612 24.6965 16.4743 24.4392 16.3534 24.1919C16.26 24.0004 16.177 23.8149 16.1069 23.6384C15.941 23.2193 15.8741 22.9148 15.8741 22.7277V22.3749L15.6147 22.1254C15.1362 21.6659 14.1018 20.2236 14.1018 18.4688C14.1018 17.941 14.1018 17.5015 14.1083 17.1289C14.1188 16.5761 14.1429 16.1703 14.2001 15.8405C14.2227 15.7094 14.2501 15.5946 14.2839 15.4911C14.3733 15.2178 14.5087 15.0231 14.7278 14.8122L14.988 14.5627V12.0019C14.9243 8.80793 16.0787 7.19718 17.4047 6.3866C18.7968 5.53572 20.5755 5.44344 21.92 5.67825L22.3768 5.75808L22.7046 5.4425C22.8085 5.3427 23.1308 5.12782 23.7035 4.89018C24.2513 4.66279 24.9635 4.44153 25.786 4.29326C27.4342 3.99633 29.4723 4.00083 31.4975 4.77931C33.505 5.55125 34.3581 6.63487 34.6151 7.78698C34.8866 9.00482 34.5386 10.4984 33.6919 12.1254L33.5985 12.3052V14.5627L33.8587 14.8122C34.1608 15.1029 34.3034 15.3628 34.3863 15.8405C34.4822 16.3925 34.4846 17.158 34.4846 18.4688C34.4846 20.2236 33.4503 21.6659 32.9717 22.1254L32.7123 22.3749V22.7277C32.7123 22.9148 32.6455 23.2193 32.4795 23.6383C32.3885 23.8675 32.2757 24.1118 32.1468 24.3646C32.0485 24.5581 31.9406 24.7566 31.8254 24.9569C31.2953 25.8809 30.6549 26.7845 30.2312 27.3273L30.0539 27.5545V29.542H30.9401C35.6132 29.542 38.4336 30.9616 40.11 32.9527C41.3047 34.3708 41.9789 36.1486 42.2762 38.076C42.4164 38.9895 42.5363 43.12 41.5962 43.12C38.8294 45.8867 35.372 47.8616 31.5834 48.8393L28.3995 49.661C27.6647 49.8506 26.909 49.9465 26.1502 49.9465C18.9737 49.9465 12.0924 47.09 7.02576 42.0076L6.83839 41.8197Z" fill="#0E3C77"/>
<path fill-rule="evenodd" clip-rule="evenodd" d="M25.3689 38.0658C26.2454 37.8432 26.8931 37.0568 26.8931 36.1208C26.8931 35.0118 25.9838 30.766 24.862 30.766C23.7402 30.766 22.8309 35.0118 22.8309 36.1208C22.8309 37.0561 23.4777 37.8421 24.3533 38.0653V50.0613H25.3689V38.0658Z" fill="white"/>
<path d="M21.0508 42.7428C21.5358 43.4354 22.4969 43.5992 23.1975 43.1086C23.8981 42.6181 24.0729 41.6589 23.5879 40.9663C23.1029 40.2736 20.6782 38.0196 19.9776 38.5102C19.277 39.0007 20.5658 42.0501 21.0508 42.7428Z" fill="white"/>
<path d="M20.858 47.7758C21.343 48.4685 22.3041 48.6323 23.0047 48.1417C23.7053 47.6511 23.8801 46.692 23.3951 45.9993C22.9101 45.3067 20.4854 43.0526 19.7848 43.5432C19.0842 44.0338 20.373 47.0832 20.858 47.7758Z" fill="white"/>
<path d="M28.7854 42.7428C28.3005 43.4354 27.3393 43.5992 26.6387 43.1086C25.9381 42.6181 25.7634 41.6589 26.2483 40.9663C26.7333 40.2736 29.158 38.0196 29.8586 38.5102C30.5592 39.0007 29.2704 42.0501 28.7854 42.7428Z" fill="white"/>
<path d="M28.9783 47.7758C28.4933 48.4685 27.5322 48.6323 26.8316 48.1417C26.131 47.6511 25.9562 46.692 26.4412 45.9993C26.9261 45.3067 29.3508 43.0526 30.0514 43.5432C30.752 44.0338 29.4632 47.0832 28.9783 47.7758Z" fill="white"/>
<path fill-rule="evenodd" clip-rule="evenodd" d="M33.7554 6.76409C33.7554 5.8068 34.5315 5.03076 35.4888 5.03076C36.6024 5.03076 37.427 6.06582 37.1783 7.15127L35.3955 14.9306L37.6644 33.0818L34.6753 32.622L34.2155 31.4723L31.2264 32.622L34.0974 15.3957C30.1605 15.9933 26.1736 16.1958 22.1962 16.0002L14.2117 15.6075L14.6715 13.0783V10.3192L20.2309 11.4895C24.7852 12.4484 29.517 11.9441 33.7554 10.0632V6.76409Z" fill="#FF6D38"/>
</g>
</svg>
