<svg width="30" height="30" viewBox="0 0 30 30" fill="none" xmlns="http://www.w3.org/2000/svg">
<g id="description_FILL0_wght400_GRAD0_opsz24 (1) 1">
<g id="Group 22958">
<path id="Vector" d="M10 23H20V20.5H10V23ZM10 18H20V15.5H10V18ZM7.5 28C6.8125 28 6.22396 27.7552 5.73437 27.2656C5.24479 26.776 5 26.1875 5 25.5V5.5C5 4.8125 5.24479 4.22396 5.73437 3.73438C6.22396 3.24479 6.8125 3 7.5 3H17.5L25 10.5V25.5C25 26.1875 24.7552 26.776 24.2656 27.2656C23.776 27.7552 23.1875 28 22.5 28H7.5ZM16.25 11.75V5.5H7.5V25.5H22.5V11.75H16.25Z" fill="white"/>
</g>
</g>
</svg>
