<svg width="47" height="42" viewBox="0 0 47 42" fill="none" xmlns="http://www.w3.org/2000/svg">
<path d="M34.0939 8.15616H38.4948C41.7507 8.15616 44.3625 11.0185 44.3625 14.5606V33.5952C44.3625 37.1372 41.7149 39.9996 38.4948 39.9996H7.86779C4.61188 39.9996 2 37.1372 2 33.5952V14.5606C2 11.0185 4.64766 8.15616 7.86779 8.15616H12.2686" stroke="#FF6D38" stroke-width="4" stroke-linecap="round" stroke-linejoin="round"/>
<path d="M12.2703 8.15403L14.0234 4.68344C14.8464 3.03761 16.528 2 18.3885 2H28.0131C29.8736 2 31.5552 3.03761 32.3782 4.68344L34.1312 8.15403" stroke="#FF6D38" stroke-width="4" stroke-linecap="round" stroke-linejoin="round"/>
<path d="M23.1812 31.6242C27.9104 31.6242 31.7439 27.7906 31.7439 23.0615C31.7439 18.3326 27.9104 14.4989 23.1812 14.4989C18.4523 14.4989 14.6187 18.3326 14.6187 23.0615C14.6187 27.7906 18.4523 31.6242 23.1812 31.6242Z" stroke="#2276E3" stroke-width="4" stroke-linecap="round" stroke-linejoin="round"/>
</svg>
