<svg width="30" height="30" viewBox="0 0 30 30" fill="none" xmlns="http://www.w3.org/2000/svg">
<g id="description_FILL0_wght400_GRAD0_opsz24 (1) 1">
<path id="Vector" d="M6 16.8C6 15.1333 6.6625 13.3208 7.9875 11.3625C9.3125 9.40417 11.3167 7.28333 14 5C15.9667 6.66667 17.5625 8.25 18.7875 9.75C20.0125 11.25 20.8917 12.675 21.425 14.025H19.25C18.7833 13.075 18.1167 12.0708 17.25 11.0125C16.3833 9.95417 15.3 8.83333 14 7.65C12.0167 9.46667 10.5208 11.1417 9.5125 12.675C8.50417 14.2083 8 15.5833 8 16.8C8 18.5833 8.56667 20.0625 9.7 21.2375C10.8333 22.4125 12.2667 23 14 23V25C11.7167 25 9.8125 24.2167 8.2875 22.65C6.7625 21.0833 6 19.1333 6 16.8ZM16.8 25.475L16.375 24.525C16.2417 24.2417 16.1458 23.9458 16.0875 23.6375C16.0292 23.3292 16 23.0167 16 22.7C16 22.3333 16.0417 21.9708 16.125 21.6125C16.2083 21.2542 16.3333 20.9083 16.5 20.575C16.6333 20.2917 16.75 20.0042 16.85 19.7125C16.95 19.4208 17 19.1167 17 18.8C17 18.55 16.9708 18.3083 16.9125 18.075C16.8542 17.8417 16.775 17.6083 16.675 17.375L16.325 16.625L17.7 16.025L18.125 16.925C18.2583 17.2083 18.3542 17.5083 18.4125 17.825C18.4708 18.1417 18.5 18.4667 18.5 18.8C18.5 19.1667 18.4583 19.525 18.375 19.875C18.2917 20.225 18.1667 20.5667 18 20.9C17.8667 21.1833 17.75 21.475 17.65 21.775C17.55 22.075 17.5 22.3833 17.5 22.7C17.5 22.9333 17.525 23.1625 17.575 23.3875C17.625 23.6125 17.7 23.8333 17.8 24.05L18.175 24.875L16.8 25.475ZM19.8 25.475L19.375 24.525C19.2417 24.2417 19.1458 23.9458 19.0875 23.6375C19.0292 23.3292 19 23.0167 19 22.7C19 22.3333 19.0417 21.9708 19.125 21.6125C19.2083 21.2542 19.3333 20.9083 19.5 20.575C19.6333 20.2917 19.75 20.0042 19.85 19.7125C19.95 19.4208 20 19.1167 20 18.8C20 18.55 19.9708 18.3083 19.9125 18.075C19.8542 17.8417 19.775 17.6083 19.675 17.375L19.325 16.625L20.7 16.025L21.125 16.925C21.2583 17.225 21.3542 17.5292 21.4125 17.8375C21.4708 18.1458 21.5 18.4667 21.5 18.8C21.5 19.1667 21.4583 19.525 21.375 19.875C21.2917 20.225 21.1667 20.5667 21 20.9C20.8667 21.1833 20.75 21.475 20.65 21.775C20.55 22.075 20.5 22.3833 20.5 22.7C20.5 22.9333 20.525 23.1625 20.575 23.3875C20.625 23.6125 20.7 23.8333 20.8 24.05L21.175 24.875L19.8 25.475ZM22.8 25.475L22.375 24.525C22.2417 24.2417 22.1458 23.9458 22.0875 23.6375C22.0292 23.3292 22 23.0167 22 22.7C22 22.3333 22.0417 21.9708 22.125 21.6125C22.2083 21.2542 22.3333 20.9083 22.5 20.575C22.6333 20.2917 22.75 20.0042 22.85 19.7125C22.95 19.4208 23 19.1167 23 18.8C23 18.55 22.9708 18.3083 22.9125 18.075C22.8542 17.8417 22.775 17.6083 22.675 17.375L22.325 16.625L23.7 16.025L24.125 16.925C24.2583 17.2083 24.3542 17.5083 24.4125 17.825C24.4708 18.1417 24.5 18.4667 24.5 18.8C24.5 19.1667 24.4583 19.5292 24.375 19.8875C24.2917 20.2458 24.1667 20.5917 24 20.925C23.8667 21.2083 23.75 21.4958 23.65 21.7875C23.55 22.0792 23.5 22.3833 23.5 22.7C23.5 22.9333 23.525 23.1625 23.575 23.3875C23.625 23.6125 23.7 23.8333 23.8 24.05L24.175 24.875L22.8 25.475Z" fill="black"/>
</g>
</svg>
